<svg xmlns="http://www.w3.org/2000/svg" viewBox="0 0 128 128" width="128" height="128">
  <defs>
    <radialGradient id="faceGrad" cx="50%" cy="50%" r="50%">
      <stop offset="0%" stop-color="#FFE0B2"/><stop offset="100%" stop-color="#FFCC80"/>
    </radialGradient>
    <radialGradient id="furGrad" cx="40%" cy="40%" r="60%">
      <stop offset="0%" stop-color="#8D5524"/><stop offset="100%" stop-color="#5C3317"/>
    </radialGradient>
  </defs>
  <polygon points="20,20 23,26 29,29 23,32 20,38 17,32 11,29 17,26" fill="#FFD700"/>
  <polygon points="108,18 111,24 117,27 111,30 108,36 105,30 99,27 105,24" fill="#FFD700"/>
  <path d="M42,75 Q26,50 24,35" fill="none" stroke="#5C3317" stroke-width="8" stroke-linecap="round"/>
  <path d="M14,32 Q24,22 34,36 Q25,32 14,32" fill="#FFD700" stroke="#E65100" stroke-width="2"/>
  <path d="M86,75 Q102,50 104,35" fill="none" stroke="#5C3317" stroke-width="8" stroke-linecap="round"/>
  <path d="M114,32 Q104,22 94,36 Q103,32 114,32" fill="#FFD700" stroke="#E65100" stroke-width="2"/>
  <ellipse cx="64" cy="88" rx="26" ry="24" fill="url(#furGrad)"/>
  <ellipse cx="64" cy="89" rx="17" ry="16" fill="#FFE0B2"/>
  <g transform="translate(0, -2)">
    <circle cx="32" cy="46" r="14" fill="#5C3317"/>
    <circle cx="32" cy="46" r="9" fill="#FFCC80"/>
    <circle cx="96" cy="46" r="14" fill="#5C3317"/>
    <circle cx="96" cy="46" r="9" fill="#FFCC80"/>
    <ellipse cx="64" cy="46" rx="33" ry="29" fill="url(#furGrad)"/>
    <circle cx="53" cy="45" r="17" fill="url(#faceGrad)"/>
    <circle cx="75" cy="45" r="17" fill="url(#faceGrad)"/>
    <ellipse cx="64" cy="56" rx="20" ry="14" fill="url(#faceGrad)"/>
    <path d="M46,42 Q53,34 60,42" fill="none" stroke="#4E270A" stroke-width="4" stroke-linecap="round"/>
    <path d="M68,42 Q75,34 82,42" fill="none" stroke="#4E270A" stroke-width="4" stroke-linecap="round"/>
    <circle cx="43" cy="52" r="6" fill="#FF8A80" opacity="0.7"/>
    <circle cx="85" cy="52" r="6" fill="#FF8A80" opacity="0.7"/>
    <path d="M52,55 Q64,74 76,55 Z" fill="#D32F2F" stroke="#4E270A" stroke-width="2.5"/>
    <path d="M56,56 Q64,60 72,56" fill="#FFFFFF"/>
    <ellipse cx="64" cy="65" rx="7" ry="5" fill="#FF8A80"/>
  </g>
</svg>